<svg width="19" height="19" viewBox="0 0 19 19" fill="none" xmlns="http://www.w3.org/2000/svg">
<g clip-path="url(#clip0)">
<path d="M18.4829 13.9441L15.8314 11.2926C14.8845 10.3456 13.2746 10.7244 12.8958 11.9555C12.6118 12.8078 11.6648 13.2812 10.8125 13.0918C8.91858 12.6183 6.36177 10.1562 5.88829 8.16759C5.6042 7.31528 6.17238 6.36831 7.02465 6.08426C8.2557 5.70547 8.63449 4.09563 7.68752 3.14866L5.03602 0.497158C4.27844 -0.165719 3.14208 -0.165719 2.4792 0.497158L0.679967 2.29639C-1.11927 4.19033 0.869361 9.20925 5.32011 13.66C9.77085 18.1107 14.7898 20.1941 16.6837 18.3001L18.4829 16.5009C19.1459 15.7433 19.1459 14.607 18.4829 13.9441Z" fill="#6A7FD3"/>
</g>
<defs>
<clipPath id="clip0">
<rect width="19" height="19" fill="white"/>
</clipPath>
</defs>
</svg>
