<svg width="31" height="31" viewBox="0 0 31 31" fill="none" xmlns="http://www.w3.org/2000/svg">
<g clip-path="url(#clip0)">
<path d="M24.5419 10.0618V18.548C23.909 19.0259 23.0694 19.1551 22.3202 18.8968L22.0748 18.8064C22.8369 17.308 22.5527 15.4739 21.3515 14.2468L16.9985 9.89385L20.4602 8.67969L24.5419 10.0618Z" fill="white"/>
<path d="M14.0403 15.8483L18.5999 20.3304V20.3433C18.4836 20.7567 18.2641 21.1312 17.9541 21.4412C17.3986 21.9837 16.6624 22.255 15.9391 22.2162L11.0824 17.3596C10.9661 17.4629 10.9145 17.605 10.9145 17.7471C10.9145 17.915 10.992 18.0958 11.1599 18.1992L15.7711 22.72C15.642 23.03 15.4611 23.3142 15.2157 23.5596C14.6861 24.0892 13.9886 24.3475 13.2911 24.3475C12.6195 24.3475 11.9478 24.1021 11.4311 23.5983L8.58948 21.0279C7.96948 20.4596 7.24615 20.0592 6.44531 19.8137C6.45823 19.775 6.45823 19.7362 6.45823 19.6975V8.84749L9.77781 7.47833C10.7336 7.07791 11.8057 7.15541 12.6841 7.63333L12.4774 7.73666C11.3666 8.29208 10.5786 9.35124 10.3591 10.6171C10.1653 11.8442 10.5786 13.11 11.457 14.0012C12.1028 14.6471 12.9682 15.0475 13.8853 15.125C13.8207 15.2154 13.7949 15.3058 13.7949 15.3962C13.7949 15.5771 13.8724 15.745 14.0403 15.8483Z" fill="white"/>
<path d="M20.8477 18.3937C20.7443 18.6004 20.6152 18.7812 20.4472 18.9491C19.9435 19.4529 19.3493 19.737 18.7293 19.7887L14.0664 15.1387H14.2214C14.8414 15.1387 15.4614 14.9837 16.0039 14.7125L16.4172 14.4929L18.6389 13.3691L20.4343 15.1646C20.4343 15.1646 20.4343 15.1646 20.4472 15.1775C21.2997 16.0429 21.4418 17.3733 20.8477 18.3937Z" fill="white"/>
<path d="M4.19792 20.6667H0.96875C0.434 20.6667 0 20.2327 0 19.6979V8.71875C0 8.184 0.434 7.75 0.96875 7.75H4.19792C4.73267 7.75 5.16667 8.184 5.16667 8.71875V19.6979C5.16667 20.2327 4.73267 20.6667 4.19792 20.6667Z" fill="white"/>
<path d="M30.0314 20.6667H26.8022C26.2675 20.6667 25.8335 20.2327 25.8335 19.6979V8.71875C25.8335 8.184 26.2675 7.75 26.8022 7.75H30.0314C30.5662 7.75 31.0002 8.184 31.0002 8.71875V19.6979C31.0002 20.2327 30.5662 20.6667 30.0314 20.6667Z" fill="white"/>
<path d="M23.1726 7.87891C23.1597 7.87891 23.1468 7.866 23.1209 7.866L20.163 6.65183C19.2459 6.27725 18.2126 6.30308 17.3214 6.75516L13.7951 8.52475L13.0589 8.88641C12.3097 9.261 11.7801 9.98433 11.638 10.811C11.5089 11.6377 11.7801 12.4902 12.3743 13.0843C12.878 13.5881 13.5497 13.8464 14.2214 13.8464C14.6218 13.8464 15.0351 13.756 15.4097 13.5622L15.8359 13.3427L17.683 12.4127L22.8239 9.82933L24.5418 10.5397V8.7185C24.5418 8.62808 24.5418 8.53766 24.5676 8.46016L23.1726 7.87891Z" fill="white"/>
</g>
<defs>
<clipPath id="clip0">
<rect width="31" height="31" fill="white"/>
</clipPath>
</defs>
</svg>
