<svg width="72" height="72" viewBox="0 0 72 72" fill="none" xmlns="http://www.w3.org/2000/svg">
<g clip-path="url(#clip0)">
<path d="M57 23.3702V43.0802C55.53 44.1902 53.58 44.4902 51.84 43.8902L51.27 43.6802C53.04 40.2002 52.38 35.9402 49.59 33.0902L39.48 22.9802L47.52 20.1602L57 23.3702Z" fill="url(#paint0_linear)"/>
<path d="M32.6102 36.8098L43.2002 47.2198V47.2498C42.9302 48.2098 42.4202 49.0798 41.7002 49.7998C40.4102 51.0598 38.7002 51.6898 37.0202 51.5998L25.7402 40.3198C25.4702 40.5598 25.3502 40.8898 25.3502 41.2198C25.3502 41.6098 25.5302 42.0298 25.9202 42.2698L36.6302 52.7698C36.3302 53.4898 35.9102 54.1498 35.3402 54.7198C34.1102 55.9498 32.4902 56.5498 30.8702 56.5498C29.3102 56.5498 27.7502 55.9798 26.5502 54.8098L19.9502 48.8398C18.5102 47.5198 16.8302 46.5898 14.9702 46.0198C15.0002 45.9298 15.0002 45.8398 15.0002 45.7498V20.5498L22.7102 17.3698C24.9302 16.4398 27.4202 16.6198 29.4602 17.7298L28.9802 17.9698C26.4002 19.2598 24.5702 21.7198 24.0602 24.6598C23.6102 27.5098 24.5702 30.4498 26.6102 32.5198C28.1102 34.0198 30.1202 34.9498 32.2502 35.1298C32.1002 35.3398 32.0402 35.5498 32.0402 35.7598C32.0402 36.1798 32.2202 36.5698 32.6102 36.8098Z" fill="url(#paint1_linear)"/>
<path d="M48.4199 42.7198C48.1799 43.1998 47.8799 43.6198 47.4899 44.0098C46.3199 45.1798 44.9399 45.8398 43.4999 45.9598L32.6699 35.1598H33.0299C34.4699 35.1598 35.9099 34.7998 37.1699 34.1698L38.1299 33.6598L43.2899 31.0498L47.4599 35.2198C47.4599 35.2198 47.4599 35.2198 47.4899 35.2498C49.4699 37.2598 49.7999 40.3498 48.4199 42.7198Z" fill="url(#paint2_linear)"/>
<path d="M9.75 48H2.25C1.008 48 0 46.992 0 45.75V20.25C0 19.008 1.008 18 2.25 18H9.75C10.992 18 12 19.008 12 20.25V45.75C12 46.992 10.992 48 9.75 48Z" fill="url(#paint3_linear)"/>
<path d="M69.75 48H62.25C61.008 48 60 46.992 60 45.75V20.25C60 19.008 61.008 18 62.25 18H69.75C70.992 18 72 19.008 72 20.25V45.75C72 46.992 70.992 48 69.75 48Z" fill="url(#paint4_linear)"/>
<path d="M53.8199 18.3001C53.7899 18.3001 53.7599 18.2701 53.6999 18.2701L46.8299 15.4501C44.6999 14.5801 42.2999 14.6401 40.2299 15.6901L32.0399 19.8001L30.3299 20.6401C28.5899 21.5101 27.3599 23.1901 27.0299 25.1101C26.7299 27.0301 27.3599 29.0101 28.7399 30.3901C29.9099 31.5601 31.4699 32.1601 33.0299 32.1601C33.9599 32.1601 34.9199 31.9501 35.7899 31.5001L36.7799 30.9901L41.0699 28.8301L53.0099 22.8301L56.9999 24.4801V20.2501C56.9999 20.0401 56.9999 19.8301 57.0599 19.6501L53.8199 18.3001Z" fill="url(#paint5_linear)"/>
</g>
<defs>
<linearGradient id="paint0_linear" x1="48.24" y1="20.1602" x2="48.24" y2="44.1936" gradientUnits="userSpaceOnUse">
<stop stop-color="#51C789"/>
<stop offset="1" stop-color="#6AEFB2"/>
</linearGradient>
<linearGradient id="paint1_linear" x1="29.0852" y1="16.7715" x2="29.0852" y2="56.5498" gradientUnits="userSpaceOnUse">
<stop stop-color="#51C789"/>
<stop offset="1" stop-color="#6AEFB2"/>
</linearGradient>
<linearGradient id="paint2_linear" x1="40.9646" y1="31.0498" x2="40.9646" y2="45.9598" gradientUnits="userSpaceOnUse">
<stop stop-color="#51C789"/>
<stop offset="1" stop-color="#6AEFB2"/>
</linearGradient>
<linearGradient id="paint3_linear" x1="6" y1="18" x2="6" y2="48" gradientUnits="userSpaceOnUse">
<stop stop-color="#51C789"/>
<stop offset="1" stop-color="#6AEFB2"/>
</linearGradient>
<linearGradient id="paint4_linear" x1="66" y1="18" x2="66" y2="48" gradientUnits="userSpaceOnUse">
<stop stop-color="#51C789"/>
<stop offset="1" stop-color="#6AEFB2"/>
</linearGradient>
<linearGradient id="paint5_linear" x1="42.0082" y1="14.8457" x2="42.0082" y2="32.1601" gradientUnits="userSpaceOnUse">
<stop stop-color="#51C789"/>
<stop offset="1" stop-color="#6AEFB2"/>
</linearGradient>
<clipPath id="clip0">
<rect width="72" height="72" fill="white"/>
</clipPath>
</defs>
</svg>
