<svg width="31" height="31" viewBox="0 0 31 31" fill="none" xmlns="http://www.w3.org/2000/svg">
<g clip-path="url(#clip0)">
<path d="M15.9577 20.9512V20.8304C15.3405 20.8237 14.7501 20.7901 14.1798 20.7432C13.8712 21.5416 13.4351 22.2863 12.8916 22.9505C13.9181 23.1183 14.9581 23.2122 15.998 23.2256L15.9577 20.9512Z" fill="white"/>
<path d="M13.2405 16.5097C12.744 14.1346 10.9929 12.2023 8.6648 11.471C8.02071 11.2764 7.35649 11.1758 6.68556 11.1758C5.02166 11.1825 3.41143 11.7997 2.18363 12.9135C-0.547053 15.3959 -0.741623 19.6295 1.74081 22.3602C4.22325 25.0908 8.45681 25.2854 11.1875 22.803C12.583 21.5349 13.3814 19.7435 13.3747 17.8582C13.3747 17.4087 13.3278 16.9525 13.2405 16.5097ZM6.68556 16.9592C7.81943 16.9592 8.81911 17.7106 9.12774 18.8042C9.50346 20.1528 8.72518 21.5483 7.36991 21.9308V22.5212C7.36991 22.8902 7.06799 23.1921 6.69898 23.1921C6.32997 23.1921 6.02805 22.8902 6.02805 22.5212V21.9375C4.92102 21.6356 4.15616 20.6359 4.14945 19.4886C4.14945 19.1196 4.45137 18.8177 4.82038 18.8177C5.18939 18.8177 5.49131 19.1196 5.49131 19.4886C5.49131 20.1461 6.02805 20.6761 6.68556 20.6761C7.34307 20.6761 7.8731 20.1394 7.8731 19.4819C7.8731 18.8244 7.33636 18.2943 6.67885 18.2943C5.53156 18.2943 4.53188 17.5228 4.23667 16.4157C3.88108 15.0739 4.68619 13.6783 6.03476 13.316V13.0275C6.03476 12.6585 6.33668 12.3566 6.70569 12.3566C7.0747 12.3566 7.37662 12.6585 7.37662 13.0275V13.3295C8.47023 13.6381 9.22167 14.6378 9.22167 15.7716C9.22167 16.1407 8.91975 16.4426 8.55074 16.4426C8.18173 16.4426 7.87981 16.1407 7.87981 15.7716C7.87981 15.1141 7.34307 14.5774 6.68556 14.5774C6.02805 14.5774 5.49802 15.1074 5.49131 15.7716C5.49131 16.4292 6.02805 16.9592 6.68556 16.9592Z" fill="white"/>
<path d="M15.9379 19.4816L15.8976 17.1065C15.4817 17.0998 15.0724 17.0864 14.6833 17.0596C14.7034 17.3279 14.7168 17.5896 14.7168 17.8513C14.7168 18.3746 14.6631 18.9046 14.5625 19.4212C15.0053 19.4615 15.4683 19.4816 15.9379 19.4816Z" fill="white"/>
<path d="M23.2848 8.37793C22.8218 8.61946 22.3321 8.81403 21.8289 8.96164C20.3193 9.41787 18.34 9.66611 16.2736 9.66611C14.2943 9.66611 12.409 9.438 10.9531 9.01531C10.4499 8.88113 9.96685 8.69327 9.50391 8.45844L9.55087 10.3505C10.309 10.6322 11.0135 11.0348 11.6509 11.538C11.671 11.5447 11.6844 11.5447 11.7046 11.5514C12.9927 11.8802 14.6164 12.0546 16.2736 12.0546C18.1924 12.0546 20.0777 11.8131 21.4397 11.4038C22.8956 10.961 23.2177 10.4981 23.2177 10.4108C23.2177 10.3169 23.211 10.2297 23.2848 10.1358V8.37793Z" fill="white"/>
<path d="M21.4327 5.71428C20.0707 5.2983 18.1854 5.06348 16.2666 5.06348C14.3343 5.06348 12.5228 5.2983 11.1675 5.71428C9.75186 6.14367 9.44323 6.56636 9.43652 6.70054C9.43652 6.70054 9.44323 6.70054 9.44323 6.71396C9.47678 6.86156 9.87934 7.3178 11.3218 7.73377C12.657 8.12291 14.4148 8.33761 16.2666 8.33761C18.1854 8.33761 20.064 8.10278 21.426 7.69352C22.8819 7.25741 23.2107 6.79447 23.2107 6.70054C23.2107 6.61332 22.8886 6.15709 21.4327 5.71428Z" fill="white"/>
<path d="M30.9863 24.2794V22.2666C30.5368 22.4947 30.0671 22.6893 29.5773 22.8369C28.0745 23.2931 26.1086 23.5414 24.0355 23.5414C22.1971 23.5414 20.4057 23.3334 18.9968 22.9644C18.4198 22.8168 17.8629 22.6155 17.3262 22.3538L17.3597 24.2995C17.3597 24.3062 17.3597 24.3062 17.3597 24.3129C17.3597 24.4136 17.6549 24.8631 19.0706 25.2992C20.4124 25.7085 22.224 25.9366 24.1629 25.9366C26.0952 25.9366 27.9134 25.7018 29.2687 25.2791C30.6844 24.8363 30.993 24.3733 30.993 24.2794H30.9863Z" fill="white"/>
<path d="M23.2712 12.1221C22.8083 12.3569 22.3252 12.5515 21.822 12.6991C20.3124 13.1553 18.3332 13.4035 16.26 13.4035C15.2402 13.4035 14.2271 13.3365 13.2207 13.209C13.7642 13.9604 14.1667 14.8058 14.4217 15.7048C14.9987 15.7451 15.6226 15.7719 16.2667 15.7719C16.2868 15.7719 16.3137 15.7719 16.3338 15.7719C17.4341 14.5643 20.3929 13.9604 23.2712 13.8799V12.1221Z" fill="white"/>
<path d="M29.5302 19.126C28.034 19.5688 26.0883 19.8103 24.0487 19.8103C22.0695 19.8103 20.1842 19.5822 18.7282 19.1595C18.2251 19.0186 17.7353 18.8307 17.2656 18.5959L17.2925 20.1391L17.2992 20.7026C17.8225 21.3534 20.3251 22.1921 24.042 22.1921C25.981 22.1921 27.8126 21.964 29.188 21.548C30.6372 21.1052 30.9526 20.649 30.9526 20.555C30.9526 20.4812 30.9928 20.4007 30.9928 20.3336H30.9995V18.5557C30.5299 18.7905 30.0401 18.9918 29.5302 19.126Z" fill="white"/>
<path d="M29.215 15.8718C27.8463 15.4558 25.9677 15.2344 24.0488 15.2344H23.9348C22.1501 15.2344 20.4526 15.4357 19.151 15.8047C17.7622 16.1938 17.2858 16.6366 17.2255 16.8178C17.2188 16.8312 17.2188 16.8379 17.2188 16.8446C17.2188 16.8446 17.2188 16.8446 17.2322 16.8714C17.2724 17.0123 17.6683 17.4686 19.1108 17.8913C20.4459 18.2737 22.2038 18.4884 24.0555 18.4884C25.9677 18.4884 27.7792 18.267 29.1546 17.8577C30.644 17.4149 30.9795 16.952 30.9862 16.8513V16.8446C30.9795 16.744 30.644 16.3012 29.215 15.8718Z" fill="white"/>
</g>
<defs>
<clipPath id="clip0">
<rect width="31" height="31" fill="white"/>
</clipPath>
</defs>
</svg>
