<svg width="78" height="78" viewBox="0 0 78 78" fill="none" xmlns="http://www.w3.org/2000/svg">
<g clip-path="url(#clip0)">
<path d="M40.1513 52.7162V52.4123C38.5982 52.3954 37.1127 52.311 35.6778 52.1929C34.9012 54.2018 33.8039 56.0756 32.4365 57.7469C35.0194 58.1689 37.636 58.4052 40.2526 58.439L40.1513 52.7162Z" fill="url(#paint0_linear)"/>
<path d="M33.3149 41.5409C32.0657 35.5648 27.6596 30.703 21.8018 28.8629C20.1811 28.3733 18.5099 28.1201 16.8217 28.1201C12.6351 28.137 8.58359 29.6901 5.49429 32.4924C-1.37646 38.7385 -1.86602 49.3907 4.38011 56.2615C10.6262 63.1322 21.2784 63.6218 28.1492 57.3756C31.6605 54.1851 33.6694 49.6777 33.6525 44.934C33.6525 43.803 33.5344 42.655 33.3149 41.5409ZM16.8217 42.6719C19.6747 42.6719 22.19 44.5626 22.9666 47.3143C23.9119 50.7075 21.9537 54.2188 18.5436 55.1811V56.6666C18.5436 57.5951 17.784 58.3548 16.8555 58.3548C15.927 58.3548 15.1674 57.5951 15.1674 56.6666V55.1979C12.3819 54.4383 10.4574 51.9229 10.4406 49.0362C10.4406 48.1077 11.2002 47.3481 12.1287 47.3481C13.0572 47.3481 13.8168 48.1077 13.8168 49.0362C13.8168 50.6906 15.1674 52.0242 16.8217 52.0242C18.4761 52.0242 19.8097 50.6737 19.8097 49.0193C19.8097 47.365 18.4592 46.0313 16.8049 46.0313C13.9181 46.0313 11.4028 44.09 10.66 41.3045C9.76529 37.9282 11.7911 34.4169 15.1842 33.5053V32.7794C15.1842 31.8509 15.9439 31.0913 16.8724 31.0913C17.8009 31.0913 18.5605 31.8509 18.5605 32.7794V33.5391C21.3122 34.3156 23.2029 36.8309 23.2029 39.6839C23.2029 40.6124 22.4433 41.372 21.5148 41.372C20.5863 41.372 19.8266 40.6124 19.8266 39.6839C19.8266 38.0295 18.4761 36.679 16.8217 36.679C15.1674 36.679 13.8337 38.0126 13.8168 39.6839C13.8168 41.3383 15.1674 42.6719 16.8217 42.6719Z" fill="url(#paint1_linear)"/>
<path d="M40.1013 49.019L40 43.043C38.9534 43.0261 37.9236 42.9923 36.9445 42.9248C36.9951 43.6001 37.0289 44.2584 37.0289 44.9168C37.0289 46.2336 36.8938 47.5672 36.6406 48.8671C37.7548 48.9683 38.9196 49.019 40.1013 49.019Z" fill="url(#paint2_linear)"/>
<path d="M58.5866 21.0806C57.4218 21.6883 56.1894 22.1779 54.9233 22.5493C51.125 23.6972 46.145 24.3218 40.9455 24.3218C35.9655 24.3218 31.2218 23.7478 27.5585 22.6843C26.2924 22.3467 25.0769 21.874 23.9121 21.2831L24.0303 26.0437C25.9379 26.7527 27.7104 27.7656 29.3142 29.0317C29.3648 29.0486 29.3986 29.0486 29.4492 29.0655C32.6905 29.8927 36.7758 30.3316 40.9455 30.3316C45.7736 30.3316 50.5173 29.7239 53.9442 28.6941C57.6075 27.5799 58.4178 26.4151 58.4178 26.1956C58.4178 25.9593 58.4009 25.7398 58.5866 25.5035V21.0806Z" fill="url(#paint3_linear)"/>
<path d="M53.9272 14.3782C50.5002 13.3316 45.7566 12.7407 40.9285 12.7407C36.0666 12.7407 31.5086 13.3316 28.0986 14.3782C24.5366 15.4586 23.76 16.5222 23.7432 16.8598C23.7432 16.8598 23.76 16.8598 23.76 16.8936C23.8445 17.2649 24.8573 18.4129 28.4868 19.4595C31.8463 20.4387 36.2692 20.9789 40.9285 20.9789C45.7566 20.9789 50.4834 20.388 53.9103 19.3582C57.5736 18.2609 58.4007 17.0961 58.4007 16.8598C58.4007 16.6403 57.5904 15.4924 53.9272 14.3782Z" fill="url(#paint4_linear)"/>
<path d="M77.9663 61.0893V56.0249C76.8353 56.5989 75.6535 57.0884 74.4212 57.4598C70.6398 58.6078 65.6935 59.2324 60.4771 59.2324C55.8516 59.2324 51.3443 58.7091 47.7992 57.7806C46.3474 57.4092 44.9462 56.9027 43.5957 56.2444L43.6801 61.14C43.6801 61.1569 43.6801 61.1569 43.6801 61.1737C43.6801 61.427 44.4229 62.558 47.9849 63.6553C51.3612 64.6851 55.9191 65.259 60.7979 65.259C65.6597 65.259 70.2346 64.6682 73.6447 63.6047C77.2066 62.4905 77.9832 61.3257 77.9832 61.0893H77.9663Z" fill="url(#paint5_linear)"/>
<path d="M58.553 30.5C57.3882 31.0909 56.1728 31.5804 54.9066 31.9518C51.1083 33.0997 46.1283 33.7244 40.9119 33.7244C38.346 33.7244 35.7969 33.5555 33.2646 33.2348C34.632 35.1255 35.6449 37.2526 36.2864 39.5147C37.7382 39.616 39.3082 39.6835 40.9288 39.6835C40.9795 39.6835 41.047 39.6835 41.0976 39.6835C43.8662 36.6449 51.3109 35.1255 58.553 34.9229V30.5Z" fill="url(#paint6_linear)"/>
<path d="M74.3026 48.1244C70.5381 49.2385 65.6424 49.8463 60.5105 49.8463C55.5305 49.8463 50.7868 49.2723 47.1235 48.2088C45.8574 47.8543 44.6251 47.3816 43.4434 46.7907L43.5109 50.6735L43.5278 52.0915C44.8445 53.729 51.1413 55.8392 60.4936 55.8392C65.3723 55.8392 69.981 55.2652 73.4417 54.2186C77.0881 53.1044 77.8815 51.9565 77.8815 51.7201C77.8815 51.5344 77.9828 51.3318 77.9828 51.163H77.9997V46.6895C76.818 47.2803 75.5856 47.7867 74.3026 48.1244Z" fill="url(#paint7_linear)"/>
<path d="M73.5092 39.9367C70.0654 38.8901 65.3386 38.333 60.5105 38.333H60.2235C55.7331 38.333 51.4621 38.8395 48.1871 39.7679C44.6926 40.7471 43.494 41.8612 43.3421 42.317C43.3252 42.3508 43.3252 42.3677 43.3252 42.3846C43.3252 42.3846 43.3252 42.3846 43.359 42.4521C43.4602 42.8066 44.4563 43.9545 48.0858 45.0181C51.4452 45.9803 55.8681 46.5205 60.5274 46.5205C65.3386 46.5205 69.8966 45.9634 73.3573 44.9337C77.1049 43.8195 77.949 42.6547 77.9659 42.4014V42.3846C77.949 42.1313 77.105 41.0172 73.5092 39.9367Z" fill="url(#paint8_linear)"/>
</g>
<defs>
<linearGradient id="paint0_linear" x1="36.3446" y1="52.1929" x2="36.3446" y2="58.439" gradientUnits="userSpaceOnUse">
<stop stop-color="#3C77FF"/>
<stop offset="1" stop-color="#25C2FF"/>
</linearGradient>
<linearGradient id="paint1_linear" x1="16.8263" y1="28.1201" x2="16.8263" y2="61.7558" gradientUnits="userSpaceOnUse">
<stop stop-color="#3C77FF"/>
<stop offset="1" stop-color="#25C2FF"/>
</linearGradient>
<linearGradient id="paint2_linear" x1="38.371" y1="42.9248" x2="38.371" y2="49.019" gradientUnits="userSpaceOnUse">
<stop stop-color="#3C77FF"/>
<stop offset="1" stop-color="#25C2FF"/>
</linearGradient>
<linearGradient id="paint3_linear" x1="41.2493" y1="21.0806" x2="41.2493" y2="30.3316" gradientUnits="userSpaceOnUse">
<stop stop-color="#3C77FF"/>
<stop offset="1" stop-color="#25C2FF"/>
</linearGradient>
<linearGradient id="paint4_linear" x1="41.072" y1="12.7407" x2="41.072" y2="20.9789" gradientUnits="userSpaceOnUse">
<stop stop-color="#3C77FF"/>
<stop offset="1" stop-color="#25C2FF"/>
</linearGradient>
<linearGradient id="paint5_linear" x1="60.7894" y1="56.0249" x2="60.7894" y2="65.259" gradientUnits="userSpaceOnUse">
<stop stop-color="#3C77FF"/>
<stop offset="1" stop-color="#25C2FF"/>
</linearGradient>
<linearGradient id="paint6_linear" x1="45.9088" y1="30.5" x2="45.9088" y2="39.6835" gradientUnits="userSpaceOnUse">
<stop stop-color="#3C77FF"/>
<stop offset="1" stop-color="#25C2FF"/>
</linearGradient>
<linearGradient id="paint7_linear" x1="60.7215" y1="46.6895" x2="60.7215" y2="55.8392" gradientUnits="userSpaceOnUse">
<stop stop-color="#3C77FF"/>
<stop offset="1" stop-color="#25C2FF"/>
</linearGradient>
<linearGradient id="paint8_linear" x1="60.6455" y1="38.333" x2="60.6455" y2="46.5205" gradientUnits="userSpaceOnUse">
<stop stop-color="#3C77FF"/>
<stop offset="1" stop-color="#25C2FF"/>
</linearGradient>
<clipPath id="clip0">
<rect width="78" height="78" fill="white"/>
</clipPath>
</defs>
</svg>
