<svg width="59" height="59" viewBox="0 0 59 59" fill="none" xmlns="http://www.w3.org/2000/svg">
<g clip-path="url(#clip0)">
<path d="M35.0313 0H6.76042C3.02375 0 0 3.02375 0 6.76042V44.8646C0 48.6012 3.02375 51.625 6.76042 51.625H26.7958C24.7308 48.3554 23.3542 44.4958 23.3542 40.0708V34.0725C22.9854 34.2937 22.5675 34.4167 22.125 34.4167H9.83333C8.48125 34.4167 7.375 33.3104 7.375 31.9583C7.375 30.6062 8.48125 29.5 9.83333 29.5H22.125C22.5921 29.5 23.01 29.6229 23.3788 29.8442C23.4771 27.7546 24.4604 25.8371 26.0092 24.5833H9.83333C8.48125 24.5833 7.375 23.4771 7.375 22.125C7.375 20.7729 8.48125 19.6667 9.83333 19.6667H31.9583C32.9908 19.6667 33.8758 20.3058 34.2446 21.2154L41.2508 18.8308C41.4229 18.7571 41.595 18.7079 41.7917 18.6833V6.76042C41.7917 3.02375 38.7679 0 35.0313 0V0ZM19.6667 14.75H9.83333C8.48125 14.75 7.375 13.6437 7.375 12.2917C7.375 10.9396 8.48125 9.83333 9.83333 9.83333H19.6667C21.0188 9.83333 22.125 10.9396 22.125 12.2917C22.125 13.6437 21.0188 14.75 19.6667 14.75Z" fill="url(#paint0_linear)"/>
<path d="M57.3334 27.875L44.4272 23.4844C43.9134 23.3099 43.3554 23.3099 42.8416 23.4844L29.9353 27.875C28.9397 28.2143 28.2686 29.1509 28.2686 30.203V40.0806C28.2686 52.537 42.0819 58.555 42.6695 58.8058C42.9792 58.9361 43.3086 59 43.6356 59C43.9626 59 44.292 58.9361 44.5993 58.8033C45.1868 58.5526 59.0002 52.537 59.0002 40.0806V30.203C59.0002 29.1484 58.3315 28.2143 57.3334 27.875ZM52.3627 37.1208L44.9877 46.9541C44.5599 47.5245 43.9085 47.8809 43.1956 47.9301C43.1366 47.935 43.0776 47.9375 43.021 47.9375C42.3696 47.9375 41.7451 47.6818 41.283 47.2172L36.3663 42.3005C35.4051 41.3393 35.4051 39.7856 36.3663 38.8244C37.3275 37.8632 38.8812 37.8632 39.8424 38.8244L42.7555 41.7376L48.4294 34.1708C49.2431 33.0867 50.7844 32.863 51.8686 33.6791C52.9576 34.4928 53.1789 36.0342 52.3627 37.1208Z" fill="url(#paint1_linear)"/>
</g>
<defs>
<linearGradient id="paint0_linear" x1="20.8958" y1="0" x2="20.8958" y2="51.625" gradientUnits="userSpaceOnUse">
<stop stop-color="#FF781B"/>
<stop offset="1" stop-color="#FFAC75"/>
</linearGradient>
<linearGradient id="paint1_linear" x1="43.6344" y1="23.3535" x2="43.6344" y2="59" gradientUnits="userSpaceOnUse">
<stop stop-color="#FF781B"/>
<stop offset="1" stop-color="#FFAC75"/>
</linearGradient>
<clipPath id="clip0">
<rect width="59" height="59" fill="white"/>
</clipPath>
</defs>
</svg>
