<svg width="31" height="31" viewBox="0 0 31 31" fill="none" xmlns="http://www.w3.org/2000/svg">
<g clip-path="url(#clip0)">
<path d="M18.4063 0H3.55208C1.58875 0 0 1.58875 0 3.55208V23.5729C0 25.5362 1.58875 27.125 3.55208 27.125H14.0792C12.9942 25.4071 12.2708 23.3792 12.2708 21.0542V17.9025C12.0771 18.0187 11.8575 18.0833 11.625 18.0833H5.16667C4.45625 18.0833 3.875 17.5021 3.875 16.7917C3.875 16.0812 4.45625 15.5 5.16667 15.5H11.625C11.8704 15.5 12.09 15.5646 12.2838 15.6808C12.3354 14.5829 12.8521 13.5754 13.6658 12.9167H5.16667C4.45625 12.9167 3.875 12.3354 3.875 11.625C3.875 10.9146 4.45625 10.3333 5.16667 10.3333H16.7917C17.3342 10.3333 17.7992 10.6692 17.9929 11.1471L21.6742 9.89417C21.7646 9.85542 21.855 9.82958 21.9583 9.81667V3.55208C21.9583 1.58875 20.3696 0 18.4063 0V0ZM10.3333 7.75H5.16667C4.45625 7.75 3.875 7.16875 3.875 6.45833C3.875 5.74792 4.45625 5.16667 5.16667 5.16667H10.3333C11.0438 5.16667 11.625 5.74792 11.625 6.45833C11.625 7.16875 11.0438 7.75 10.3333 7.75Z" fill="white"/>
<path d="M30.1244 14.6462L23.3432 12.3393C23.0732 12.2476 22.78 12.2476 22.51 12.3393L15.7288 14.6462C15.2057 14.8245 14.853 15.3166 14.853 15.8694V21.0593C14.853 27.6042 22.1109 30.7662 22.4196 30.898C22.5824 30.9664 22.7555 31 22.9272 31C23.099 31 23.2721 30.9664 23.4336 30.8967C23.7423 30.7649 31.0002 27.6042 31.0002 21.0593V15.8694C31.0002 15.3153 30.6488 14.8245 30.1244 14.6462ZM27.5127 19.5042L23.6377 24.6708C23.4129 24.9705 23.0706 25.1578 22.696 25.1836C22.665 25.1862 22.634 25.1875 22.6043 25.1875C22.262 25.1875 21.934 25.0532 21.6911 24.809L19.1078 22.2257C18.6027 21.7207 18.6027 20.9043 19.1078 20.3993C19.6128 19.8942 20.4292 19.8942 20.9342 20.3993L22.4648 21.9299L25.446 17.9542C25.8735 17.3845 26.6834 17.267 27.253 17.6958C27.8253 18.1234 27.9415 18.9332 27.5127 19.5042Z" fill="white"/>
</g>
<defs>
<clipPath id="clip0">
<rect width="31" height="31" fill="white"/>
</clipPath>
</defs>
</svg>
