<svg width="21" height="21" viewBox="0 0 21 21" fill="none" xmlns="http://www.w3.org/2000/svg">
<g clip-path="url(#clip0)">
<path d="M20.8152 1.17188L14.4463 7.49972L20.8152 13.8276C20.9303 13.5869 21.0001 13.3209 21.0001 13.0368V1.96262C21.0001 1.6785 20.9303 1.41251 20.8152 1.17188Z" fill="#6A7FD3"/>
<path d="M19.1545 0.117188H1.84592C1.5618 0.117188 1.29581 0.187037 1.05518 0.302168L9.19526 8.40124C9.915 9.12098 11.0854 9.12098 11.8052 8.40124L19.9452 0.302168C19.7046 0.187037 19.4386 0.117188 19.1545 0.117188Z" fill="#6A7FD3"/>
<path d="M0.18498 1.17188C0.0698496 1.41251 0 1.6785 0 1.96262V13.0368C0 13.3209 0.0698496 13.587 0.18498 13.8276L6.55385 7.49972L0.18498 1.17188Z" fill="#6A7FD3"/>
<path d="M13.5764 8.37012L12.6751 9.27135C11.4759 10.4706 9.52449 10.4706 8.32524 9.27135L7.42404 8.37012L1.05518 14.698C1.29581 14.8131 1.5618 14.8829 1.84592 14.8829H19.1545C19.4386 14.8829 19.7046 14.8131 19.9452 14.698L13.5764 8.37012Z" fill="#6A7FD3"/>
</g>
<defs>
<clipPath id="clip0">
<rect width="21" height="21" fill="white"/>
</clipPath>
</defs>
</svg>
