<svg width="16" height="16" viewBox="0 0 16 16" fill="none" xmlns="http://www.w3.org/2000/svg">
<g clip-path="url(#clip0)">
<path d="M15.5643 11.7424L13.3315 9.50954C12.534 8.71209 11.1784 9.0311 10.8594 10.0678C10.6202 10.7855 9.82271 11.1842 9.10501 11.0247C7.51012 10.626 5.35702 8.5526 4.9583 6.87797C4.71906 6.16024 5.19753 5.36279 5.91523 5.12359C6.95191 4.80461 7.27089 3.44895 6.47344 2.65151L4.2406 0.418659C3.60264 -0.139553 2.64571 -0.139553 2.08749 0.418659L0.572347 1.93381C-0.9428 3.5287 0.731836 7.75516 4.47983 11.5032C8.22782 15.2511 12.4543 17.0056 14.0492 15.4106L15.5643 13.8955C16.1226 13.2575 16.1226 12.3006 15.5643 11.7424Z" fill="white"/>
</g>
<defs>
<clipPath id="clip0">
<rect width="16" height="16" fill="white"/>
</clipPath>
</defs>
</svg>
